<svg id="Layer_1" data-name="Layer 1" xmlns="http://www.w3.org/2000/svg" viewBox="0 0 763.32 241.28"><defs><style>.cls-1{fill:none;stroke:#22b2e6;stroke-miterlimit:10;stroke-width:12.54px;}.cls-2{fill:#1f2020;}</style></defs><circle class="cls-1" cx="64.33" cy="64.33" r="58.07"/><path class="cls-1" d="M72.38,230.19a9.13,9.13,0,0,1-16.1,0C42.44,204.38,15.6,151.75,15.6,131.78a48.74,48.74,0,1,1,97.47,0C113.07,151.75,86.22,204.38,72.38,230.19Z"/><path class="cls-2" d="M234.05,116.83a34.48,34.48,0,0,1,9.46,11.74,34.1,34.1,0,0,1-1.61,33A34.68,34.68,0,0,1,227,174.29q-9.75,4.65-23,4.64H154.81V47h47.33q13.46,0,22.91,4.45t14.2,12a31.46,31.46,0,0,1,4.74,17q0,11.74-6.34,19.4A35.46,35.46,0,0,1,220.89,111,28,28,0,0,1,234.05,116.83ZM172,104h29q12.12,0,18.74-5.68t6.63-15.71q0-10-6.63-15.71t-19.12-5.68H172Zm50.55,54.72q7.2-6.06,7.2-16.85,0-11-7.58-17.32T202,118.15H172v46.58h30.48Q215.41,164.73,222.59,158.67Z"/><path class="cls-2" d="M267.09,98.75a46.61,46.61,0,0,1,17.7-18.65,48.53,48.53,0,0,1,25.09-6.63q13.62,0,23.66,5.87a39.17,39.17,0,0,1,15,14.77V75.18h17.42V178.93H348.5V159.62a40.64,40.64,0,0,1-15.24,15q-10.14,6-23.57,6a47.09,47.09,0,0,1-25-6.82,47.75,47.75,0,0,1-17.6-19.12q-6.45-12.31-6.44-28Q260.65,110.77,267.09,98.75Zm76.68,7.67A33.45,33.45,0,0,0,331,93.07a36.25,36.25,0,0,0-35.31-.1A32.88,32.88,0,0,0,283,106.23q-4.74,8.7-4.73,20.44,0,11.94,4.73,20.74a33.37,33.37,0,0,0,12.69,13.44,34.32,34.32,0,0,0,17.6,4.64A34.88,34.88,0,0,0,331,160.85a33.31,33.31,0,0,0,12.78-13.44,42.82,42.82,0,0,0,4.73-20.55Q348.5,115.13,343.77,106.42Z"/><path class="cls-2" d="M480.65,75.18l-62.48,152.6h-17.8l20.45-50L379,75.18H398.1l32.57,84.06,32.18-84.06Z"/><path class="cls-2" d="M511.32,38.82V178.93H494.09V38.82Z"/><path class="cls-2" d="M533.66,54.92a11.88,11.88,0,0,1,0-16.66A11.3,11.3,0,0,1,542,34.85a10.78,10.78,0,0,1,8,3.41,11.49,11.49,0,0,1,3.31,8.33A11.51,11.51,0,0,1,550,54.92a10.81,10.81,0,0,1-8,3.41A11.34,11.34,0,0,1,533.66,54.92Zm16.66,20.26V178.93H533.09V75.18Z"/><path class="cls-2" d="M653.32,84.74q11.73,11.46,11.74,33v61.15H648V120.24q0-15.52-7.77-23.76t-21.2-8.24q-13.63,0-21.68,8.52t-8,24.8v57.37H572.09V75.18h17.23V89.94a34.2,34.2,0,0,1,13.92-12.3,43.09,43.09,0,0,1,19.41-4.36Q641.58,73.28,653.32,84.74Z"/><path class="cls-2" d="M739.84,178.93l-40.7-45.82v45.82H681.91V38.82h17.23v82.36l40-46h24l-48.85,51.68,49,52.07Z"/></svg>