<svg width="195" height="50" viewBox="0 0 195 50" fill="none" xmlns="http://www.w3.org/2000/svg">
<g clip-path="url(#clip0_6724_28072)">
<path d="M30.4051 15.6113V22.313H37.4433C38.7157 22.313 39.7098 22.0601 40.505 21.5544C41.3003 21.0486 41.6583 20.1634 41.6583 18.899C41.6583 17.4659 41.1413 16.5387 40.1074 16.1172C39.2327 15.7801 38.0794 15.6113 36.6877 15.6113H30.4051ZM30.4051 27.3288V35.4214H37.4433C38.7157 35.4214 39.67 35.2527 40.3858 34.8734C41.6583 34.2412 42.2944 32.9767 42.2944 31.0801C42.2944 29.5205 41.6583 28.4247 40.4256 27.8346C39.7496 27.4974 38.7952 27.3288 37.5228 27.3288H30.4051ZM38.5964 10.3428C42.0957 10.4271 44.6008 11.4808 46.0721 13.5883C46.9469 14.8949 47.3843 16.4123 47.3843 18.2245C47.3843 20.0791 46.9469 21.5544 46.0721 22.6923C45.5552 23.3246 44.8394 23.8725 43.885 24.4206C45.3563 24.9685 46.4697 25.8535 47.1854 27.0759C47.9409 28.2982 48.2988 29.7734 48.2988 31.5437C48.2988 33.314 47.9012 34.9577 47.0264 36.3486C46.4697 37.3181 45.7937 38.1189 44.9984 38.7511C44.0838 39.5099 42.9704 40.0155 41.7378 40.2685C40.505 40.5635 39.1532 40.69 37.6818 40.69H24.7188V10.3428H38.5964Z" fill="#10CA00"/>
<path d="M56.9166 18.1328V31.6626C56.9166 32.9271 57.0467 33.8964 57.3501 34.5286C57.9135 35.6667 58.997 36.2148 60.6007 36.2148C62.6812 36.2148 64.0681 35.4138 64.8482 33.8121C65.2383 32.9271 65.4117 31.7891 65.4117 30.3139V18.1328H71.5662V40.5559H65.6716V37.3948C65.6283 37.437 65.4983 37.6477 65.2383 37.9849C65.0215 38.3643 64.7616 38.6592 64.4582 38.9122C63.5046 39.713 62.5944 40.3032 61.7276 40.5982C60.8174 40.8933 59.8205 41.0618 58.6069 41.0618C55.1829 41.0618 52.8858 39.8395 51.7156 37.4791C51.0655 36.1726 50.7188 34.1915 50.7188 31.6626V18.1328H56.9166Z" fill="#10CA00"/>
<path d="M85.5545 35.7481C86.9847 35.7481 88.1984 35.2001 89.1519 34.1886C90.1053 33.1349 90.6255 31.4911 90.6255 29.2151C90.6255 27.1076 90.1488 25.5059 89.2386 24.3678C88.285 23.272 87.0714 22.7241 85.5112 22.7241C83.3874 22.7241 81.9137 23.6935 81.1336 25.6324C80.7001 26.6439 80.4835 27.9084 80.4835 29.4258C80.4835 30.7323 80.7001 31.8704 81.1769 32.8819C82.0004 34.7786 83.4741 35.7481 85.5545 35.7481ZM84.0809 17.582C85.2077 17.582 86.2479 17.7505 87.1148 18.0878C88.5451 18.6778 89.7586 19.7738 90.6688 21.3332V18.1298H96.52V39.4151C96.52 42.2812 95.9999 44.4729 95.003 45.9482C93.3127 48.4771 89.9753 49.7416 85.121 49.7416C82.1738 49.7416 79.7467 49.1514 77.8829 48.0555C76.0192 46.9175 74.979 45.2316 74.8057 42.9977H81.3502C81.5237 43.672 81.8271 44.1779 82.1738 44.4729C82.824 45.0208 83.9508 45.2737 85.4678 45.2737C87.6349 45.2737 89.1086 44.5994 89.8454 43.1663C90.3221 42.2812 90.5388 40.7216 90.5388 38.6142V37.1391C89.9753 38.1084 89.3685 38.8249 88.6751 39.3308C87.5049 40.2159 85.9445 40.6374 83.9941 40.6374C81.0468 40.6374 78.663 39.6258 76.9294 37.6027C75.1524 35.5795 74.2422 32.8399 74.2422 29.3836C74.2422 26.054 75.1091 23.272 76.7994 20.996C78.5331 18.72 80.9602 17.582 84.0809 17.582Z" fill="#10CA00"/>
<path d="M105.809 15.4717V22.1733H112.758C114.014 22.1733 114.995 21.9205 115.781 21.4147C116.566 20.909 116.919 20.0238 116.919 18.7594C116.919 17.3263 116.409 16.3991 115.388 15.9776C114.524 15.6404 113.386 15.4717 112.012 15.4717H105.809ZM105.809 27.1892V35.2818H112.758C114.014 35.2818 114.956 35.113 115.663 34.7337C116.919 34.1015 117.547 32.837 117.547 30.9404C117.547 29.3809 116.919 28.2851 115.702 27.6949C115.035 27.3577 114.092 27.1892 112.836 27.1892H105.809ZM113.896 10.2031C117.351 10.2875 119.824 11.3412 121.277 13.4486C122.14 14.7552 122.572 16.2726 122.572 18.0849C122.572 19.9395 122.14 21.4147 121.277 22.5527C120.766 23.185 120.06 23.7329 119.117 24.2809C120.57 24.8288 121.669 25.7139 122.376 26.9363C123.122 28.1585 123.475 29.6338 123.475 31.404C123.475 33.1743 123.082 34.818 122.219 36.209C121.669 37.1785 121.002 37.9793 120.217 38.6115C119.314 39.3702 118.215 39.8758 116.998 40.1288C115.781 40.4239 114.446 40.5503 112.993 40.5503H100.195V10.2031H113.896Z" fill="#10CA00"/>
<path d="M139.954 29.6365C139.608 29.8894 139.218 30.058 138.828 30.2266C138.438 30.353 137.918 30.4796 137.224 30.6059L135.881 30.8589C134.58 31.0695 133.67 31.3646 133.15 31.6597C132.197 32.2076 131.72 33.0085 131.72 34.1464C131.72 35.1579 132.023 35.8746 132.587 36.3382C133.15 36.7596 133.844 37.0125 134.667 37.0125C135.967 37.0125 137.181 36.6332 138.265 35.8746C139.348 35.1579 139.911 33.8093 139.954 31.8283V29.6365ZM136.314 26.8969C137.441 26.7704 138.221 26.6017 138.698 26.3911C139.565 26.054 139.998 25.4638 139.998 24.7473C139.998 23.8199 139.651 23.1877 139.001 22.8084C138.351 22.4713 137.398 22.3027 136.141 22.3027C134.711 22.3027 133.67 22.6398 133.107 23.3142C132.673 23.8199 132.37 24.5366 132.24 25.3795H126.432C126.562 23.4406 127.126 21.7968 128.123 20.5324C129.726 18.5935 132.457 17.582 136.314 17.582C138.871 17.582 141.082 18.0878 143.075 19.0571C145.026 20.0265 146.023 21.8389 146.023 24.5787V34.8629C146.023 35.5795 146.023 36.4225 146.066 37.4341C146.109 38.1927 146.196 38.7406 146.413 38.9937C146.586 39.2885 146.889 39.4993 147.279 39.668V40.5531H140.736C140.562 40.0895 140.431 39.668 140.344 39.2885C140.301 38.8671 140.214 38.4456 140.171 37.8977C139.348 38.7828 138.395 39.5414 137.311 40.1737C136.011 40.8902 134.537 41.2697 132.89 41.2697C130.81 41.2697 129.076 40.6795 127.732 39.4993C126.389 38.3613 125.695 36.7175 125.695 34.5679C125.695 31.8283 126.779 29.8472 128.946 28.5829C130.16 27.9084 131.937 27.4448 134.277 27.1498L136.314 26.8969Z" fill="#10CA00"/>
<path d="M155.736 33.3882C155.866 34.4419 156.17 35.1584 156.561 35.6221C157.341 36.3808 158.727 36.8022 160.722 36.8022C161.891 36.8022 162.844 36.6336 163.539 36.2543C164.232 35.9172 164.579 35.4113 164.579 34.7369C164.579 34.0626 164.319 33.5567 163.756 33.2195C163.192 32.8824 161.111 32.2923 157.471 31.4494C154.87 30.8171 153.006 30.0163 151.923 29.0889C150.883 28.1617 150.32 26.8129 150.32 25.0426C150.32 22.9775 151.186 21.2072 152.832 19.7319C154.523 18.2145 156.864 17.498 159.898 17.498C162.758 17.498 165.142 18.0459 166.92 19.1419C168.739 20.2798 169.78 22.2187 170.04 24.9583H164.016C163.929 24.1997 163.712 23.6097 163.366 23.1459C162.714 22.3873 161.588 21.9658 159.985 21.9658C158.684 21.9658 157.731 22.1765 157.168 22.5559C156.604 22.9775 156.343 23.4411 156.343 23.9468C156.343 24.6212 156.648 25.1271 157.254 25.4221C157.817 25.7592 159.942 26.265 163.539 27.0659C165.922 27.6137 167.699 28.4146 168.913 29.5527C170.084 30.6485 170.69 32.0816 170.69 33.7676C170.69 36.0014 169.824 37.8139 168.133 39.2047C166.443 40.5956 163.799 41.3121 160.245 41.3121C156.648 41.3121 153.96 40.5535 152.226 39.0783C150.493 37.603 149.625 35.7063 149.625 33.3882H155.736Z" fill="#10CA00"/>
<path d="M183.953 22.3391C182.567 22.3391 181.482 22.7606 180.702 23.6456C179.923 24.4887 179.446 25.6267 179.273 27.1019H188.633C188.547 25.5424 188.027 24.3623 187.16 23.5614C186.294 22.7606 185.253 22.3391 183.953 22.3391ZM183.953 17.5342C185.861 17.5342 187.594 17.8713 189.155 18.5878C190.671 19.2622 191.927 20.3581 192.925 21.8754C193.835 23.2242 194.442 24.7416 194.702 26.5119C194.875 27.5234 194.918 29.0408 194.875 30.9375H179.099C179.186 33.2135 179.923 34.7729 181.266 35.7003C182.132 36.2482 183.13 36.5432 184.3 36.5432C185.514 36.5432 186.554 36.206 187.334 35.4895C187.724 35.1524 188.114 34.6045 188.417 33.9721H194.615C194.442 35.2788 193.705 36.6275 192.449 38.0184C190.498 40.2102 187.724 41.3061 184.17 41.3061C181.222 41.3061 178.621 40.3788 176.412 38.5242C174.158 36.7118 173.031 33.7193 173.031 29.5465C173.031 25.6688 174.028 22.6763 176.065 20.611C178.102 18.5457 180.702 17.5342 183.953 17.5342Z" fill="#10CA00"/>
<path d="M23.0944 0.0708503C21.9174 0.209881 20.8044 0.812512 19.8325 1.22107C18.0677 1.96303 15.977 2.68398 15.2237 4.01428C14.8092 4.74595 14.8795 5.60857 14.8795 6.37575C14.8795 6.92385 14.8738 7.46794 14.9344 8.01363C14.9594 8.2381 14.9205 8.55138 15.2053 8.72073C15.4684 8.87726 16.0514 8.85146 16.3896 8.85153C17.4175 8.85182 18.4467 8.88652 19.4702 8.88958C22.4701 8.89877 25.4704 8.88965 28.4704 8.88965H31.3093C31.7231 8.88965 32.2359 8.94113 32.6383 8.87756C33.3587 8.76368 33.363 8.30533 33.363 7.93745C33.363 7.04852 33.3049 6.1571 33.3027 5.27123C33.3004 4.3756 32.9007 3.50788 31.9029 2.83497C31.5765 2.61494 31.1468 2.44696 30.7657 2.26704C29.9421 1.87816 29.0844 1.51736 28.2287 1.15757C27.4497 0.830156 26.6269 0.419992 25.7521 0.202589C24.9979 0.0150781 23.8898 -0.0231241 23.0944 0.0708503Z" fill="white"/>
<path d="M12.2466 16.2051C12.0026 17.286 11.5579 20.4863 11.4246 20.5893C11.3044 20.682 5.41232 21.0203 5.00263 21.1959C4.71767 21.318 0.597538 24.9097 0.246591 25.474C-0.215031 26.2159 0.0706452 27.2491 0.81729 27.7402C1.30908 28.0638 1.9431 28.1485 2.53432 28.0504C3.29474 27.9241 6.56997 24.8861 6.77333 24.7679C7.15662 24.5451 10.4395 24.4365 11.4954 24.3951C11.5959 25.1225 11.64 29.972 11.5703 30.1276C11.4956 30.2945 7.42889 31.9611 6.23679 32.6684C5.38172 33.1755 3.42594 38.3484 3.25681 39.2055C2.96475 40.6861 4.81602 41.6939 6.18311 41.0557C7.05661 40.6479 8.29272 36.3143 8.75689 35.7287C8.97917 35.4485 11.7634 34.3275 12.7295 33.9091C12.9502 34.391 13.2822 34.8407 13.5854 35.2823C14.8989 37.1954 16.7538 38.6537 18.9539 39.659C20.2096 40.2329 21.5626 40.6768 22.9784 40.6768C22.9784 33.7598 23.0967 10.9613 23.0149 10.6634C22.9575 10.4538 22.7248 10.2412 22.4954 10.1885C22.2639 10.1355 16.4575 10.1138 16.0027 10.2889C15.5981 10.4446 15.3066 10.7547 15.0327 11.0558C14.5589 11.5764 14.0905 12.1438 13.8027 12.7722C13.3283 12.5413 9.20139 10.843 9.06119 10.699C8.86117 10.4933 7.03594 5.93446 6.64837 5.58605C6.27668 5.25171 5.67007 5.13309 5.16356 5.12434C3.98736 5.104 3.1547 6.06095 3.23672 7.08338C3.28139 7.64073 5.84196 13.2807 6.13504 13.5523C6.72669 14.1005 11.6955 16.0673 12.2466 16.2051Z" fill="white"/>
</g>
<defs>
<clipPath id="clip0_6724_28072">
<rect width="194.958" height="49.8729" fill="white"/>
</clipPath>
</defs>
</svg>
